<?xml version="1.0" standalone="no"?>
<!DOCTYPE svg PUBLIC "-//W3C//DTD SVG 20010904//EN"
 "http://www.w3.org/TR/2001/REC-SVG-20010904/DTD/svg10.dtd">
<svg version="1.0" xmlns="http://www.w3.org/2000/svg"
 width="512.000000pt" height="512.000000pt" viewBox="0 0 512.000000 512.000000"
 preserveAspectRatio="xMidYMid meet">
<metadata>
Created by potrace 1.14, written by Peter Selinger 2001-2017
</metadata>
<g transform="translate(0.000000,512.000000) scale(0.100000,-0.100000)"
fill="#000000" stroke="none">
<path d="M2270 5114 c-102 -13 -320 -57 -425 -88 -391 -112 -759 -326 -1054
-611 -426 -412 -686 -926 -767 -1515 -24 -170 -24 -500 0 -670 153 -1111 981
-1983 2072 -2185 805 -149 1634 101 2223 670 424 410 681 916 767 1510 24 165
24 515 0 680 -86 594 -343 1100 -767 1510 -360 348 -798 573 -1308 672 -125
24 -160 26 -421 28 -157 2 -301 1 -320 -1z m-110 -1379 l0 -735 50 0 50 0 0
120 0 120 575 0 575 0 0 -120 0 -120 99 0 98 0 8 -119 7 -119 45 -6 c25 -3 70
-6 99 -6 l54 0 0 -645 0 -645 -100 0 -100 0 0 -120 0 -120 -105 0 -105 0 0
-120 0 -120 -890 0 -890 0 0 1699 c0 934 3 1719 6 1745 l7 46 258 0 259 0 0
-735z"/>
<path d="M2368 2568 l-3 -123 -102 -3 -103 -3 0 -454 0 -455 465 0 465 0 0
125 0 125 105 0 105 0 0 330 0 330 -105 0 -105 0 0 125 0 125 -360 0 -359 0
-3 -122z"/>
</g>
</svg>
